<svg aria-hidden="true" style="width:0;height:0;position:absolute;overflow:hidden" xmlns="http://www.w3.org/2000/svg"><defs><symbol id="icon-close_modal" viewBox="0 0 32 32"><path stroke-linejoin="round" stroke-linecap="round" stroke-width="2" d="M27.439 3.429 3.43 27.438m.001-24.009L27.44 27.438"/></symbol><symbol id="icon-facebook" viewBox="0 0 32 32"><path d="M14.265 11.92v1.837h-1.344v2.245h1.344v6.673h2.764v-6.673h1.854s.175-1.076.259-2.254H17.04v-1.534c0-.231.301-.539.6-.539h1.505V9.337h-2.047c-2.9 0-2.832 2.247-2.832 2.584z"/><path d="M8.003 5.335a2.668 2.668 0 0 0-2.668 2.668v16.006a2.668 2.668 0 0 0 2.668 2.668h16.006a2.668 2.668 0 0 0 2.668-2.668V8.003a2.668 2.668 0 0 0-2.668-2.668H8.003zm0-2.667h16.006a5.335 5.335 0 0 1 5.335 5.335v16.006a5.335 5.335 0 0 1-5.335 5.335H8.003a5.335 5.335 0 0 1-5.335-5.335V8.003a5.335 5.335 0 0 1 5.335-5.335z"/></symbol><symbol id="icon-instagram" viewBox="0 0 32 32"><path d="M9.957 1.422c1.565-.072 2.063-.088 6.049-.088s4.484.017 6.047.088c1.563.071 2.63.32 3.564.682a7.203 7.203 0 0 1 2.598 1.694 7.161 7.161 0 0 1 1.691 2.597c.363.934.611 2.001.683 3.561.072 1.567.088 2.066.088 6.05 0 3.985-.017 4.484-.088 6.049-.071 1.561-.32 2.628-.683 3.561a7.246 7.246 0 0 1-1.69 2.599l-.001.001a7.2 7.2 0 0 1-2.598 1.691c-.934.363-2.001.611-3.561.683-1.566.072-2.065.088-6.05.088s-4.484-.017-6.049-.088c-1.561-.071-2.628-.32-3.561-.683a7.246 7.246 0 0 1-2.599-1.69l-.001-.001a7.203 7.203 0 0 1-1.676-2.549l-.017-.049c-.361-.934-.61-2.001-.682-3.561-.072-1.567-.088-2.066-.088-6.05 0-3.985.017-4.484.088-6.047s.32-2.63.682-3.564a7.228 7.228 0 0 1 1.693-2.597l.001-.001a7.199 7.199 0 0 1 2.548-1.676l.049-.017c.934-.361 2.001-.61 3.561-.682h.001zm11.977 2.641c-1.547-.071-2.011-.085-5.929-.085s-4.382.015-5.929.085c-1.431.065-2.207.304-2.725.505a4.561 4.561 0 0 0-1.687 1.096A4.557 4.557 0 0 0 4.578 7.32l-.01.031c-.201.518-.44 1.294-.505 2.725-.071 1.547-.085 2.011-.085 5.929s.015 4.382.085 5.929c.065 1.431.304 2.207.505 2.725.235.636.61 1.214 1.096 1.687a4.539 4.539 0 0 0 1.687 1.096c.518.201 1.294.44 2.725.506 1.547.071 2.01.085 5.929.085s4.382-.015 5.929-.085c1.431-.065 2.207-.304 2.725-.506a4.561 4.561 0 0 0 1.687-1.096 4.547 4.547 0 0 0 1.096-1.687c.201-.518.44-1.294.506-2.725.071-1.547.085-2.011.085-5.929s-.015-4.382-.085-5.929c-.065-1.431-.304-2.207-.506-2.725a4.561 4.561 0 0 0-1.096-1.687 4.557 4.557 0 0 0-1.656-1.086l-.031-.01c-.518-.201-1.294-.44-2.725-.505zm-7.802 16.466a4.896 4.896 0 1 0 3.556-9.12l-.034-.011a4.896 4.896 0 0 0-3.554 9.119l.032.012zm-3.459-9.856a7.54 7.54 0 1 1 10.665 10.665 7.54 7.54 0 1 1-10.665-10.665zM25.22 9.587a1.782 1.782 0 1 0-2.447-2.591l.001-.001a1.782 1.782 0 1 0 2.447 2.591l-.001.001z"/></symbol><symbol id="icon-location" viewBox="0 0 32 32"><path d="M16.006 3.214h-.013a7.99 7.99 0 0 0-7.989 7.989c0 7.641 8.003 17.606 8.003 17.606s8.003-9.968 8.003-17.606a7.99 7.99 0 0 0-7.989-7.987h-.014.001zm0 12.408a4.322 4.322 0 1 1 0-8.644 4.322 4.322 0 1 1 0 8.644z"/></symbol><symbol id="icon-phone" viewBox="0 0 32 32"><path d="M21.007 2.668a3.002 3.002 0 0 1 3.001 3.001v20.674a3.002 3.002 0 0 1-3.001 3.001H11.003a3.002 3.002 0 0 1-3.001-3.001V5.669a3.002 3.002 0 0 1 3.001-3.001h10.004zm0 2H11.003a1 1 0 0 0-1 1v20.674a1 1 0 0 0 1 1h10.004a1 1 0 0 0 1-1V5.668a1 1 0 0 0-1-1zm-3.335 18.674h.001a1 1 0 0 1 .001 2l-3.335.005h-.001a1 1 0 0 1-.001-2l3.335-.005z"/></symbol><symbol id="icon-telegram" viewBox="0 0 32 32"><path d="M26.079 3.997a2.96 2.96 0 0 0-.953.23l.019-.007h-.003c-.285.113-1.641.683-3.701 1.547l-7.385 3.11-10.508 4.428.063-.024s-.36.117-.734.373a2.037 2.037 0 0 0-.587.568 1.647 1.647 0 0 0-.277 1.119l-.001-.008c.091.722.559 1.155.894 1.394.341.243.666.355.666.355h.008l4.884 1.646c.219.703 1.489 4.876 1.794 5.838.18.574.355.934.574 1.207.107.14.229.257.379.352.077.045.16.08.247.107l-.051-.013c.015.004.027.016.039.02.04.011.067.015.117.023.774.235 1.395-.245 1.395-.245l.035-.028 2.884-2.626 4.834 3.708.111.048c1.007.442 2.027.196 2.566-.239.544-.438.755-.996.755-.996l.035-.089 3.735-19.136c.107-.472.133-.915.017-1.343a1.81 1.81 0 0 0-.782-1.048 1.852 1.852 0 0 0-1.072-.269h.005zm-.1 2.05c-.004.064.008.056-.02.177v.011l-3.7 18.937c-.016.027-.044.085-.117.145-.079.061-.14.1-.465-.028l-5.913-4.534-3.571 3.255.751-4.791 9.658-9.003c.399-.369.267-.448.267-.448.027-.454-.602-.133-.602-.133l-12.183 7.548-.003-.02-5.853-1.973c.012-.004.021-.009.031-.014l-.001.001.032-.015.031-.011 10.512-4.428c2.653-1.118 5.326-2.242 7.381-3.11a766.961 766.961 0 0 1 3.661-1.531c.083-.032.044-.032.103-.032z"/></symbol><symbol id="icon-cil_arrow-right" viewBox="0 0 32 32"><path d="M22.492 7.586 21.078 9l6 6H1v2h26.077l-6 6 1.414 1.414L30.905 16l-8.414-8.414z"/></symbol></defs></svg>