<svg aria-hidden="true" style="position: absolute; width: 0; height: 0; overflow: hidden;" version="1.1" xmlns="http://www.w3.org/2000/svg" xmlns:xlink="http://www.w3.org/1999/xlink">
<defs>
<symbol id="icon-close_modal" viewBox="0 0 32 32">
<path d="M32 3.223l-3.223-3.223-12.777 12.777-12.777-12.777-3.223 3.223 12.777 12.777-12.777 12.777 3.223 3.223 12.777-12.777 12.777 12.777 3.223-3.223-12.777-12.777 12.777-12.777z"></path>
</symbol>
<symbol id="icon-facebook" viewBox="0 0 32 32">
<path d="M14.265 11.92v1.837h-1.344v2.245h1.344v6.673h2.764v-6.673h1.854s0.175-1.076 0.259-2.254h-2.102v-1.534c0-0.231 0.301-0.539 0.6-0.539h1.505v-2.338h-2.047c-2.9 0-2.832 2.247-2.832 2.584z"></path>
<path d="M8.003 5.335c-1.473 0-2.668 1.194-2.668 2.668v0 16.006c0 1.473 1.194 2.668 2.668 2.668v0h16.006c1.473 0 2.668-1.194 2.668-2.668v0-16.006c0-1.473-1.194-2.668-2.668-2.668v0h-16.006zM8.003 2.668h16.006c2.947 0 5.335 2.389 5.335 5.335v0 16.006c0 2.947-2.389 5.335-5.335 5.335v0h-16.006c-2.947 0-5.335-2.389-5.335-5.335v0-16.006c0-2.947 2.389-5.335 5.335-5.335v0z"></path>
</symbol>
<symbol id="icon-instagram" viewBox="0 0 32 32">
<path d="M9.957 1.422c1.565-0.072 2.063-0.088 6.049-0.088s4.484 0.017 6.047 0.088c1.563 0.071 2.63 0.32 3.564 0.682 0.978 0.369 1.865 0.947 2.598 1.694 0.747 0.732 1.323 1.618 1.691 2.597 0.363 0.934 0.611 2.001 0.683 3.561 0.072 1.567 0.088 2.066 0.088 6.050 0 3.985-0.017 4.484-0.088 6.049-0.071 1.561-0.32 2.628-0.683 3.561-0.389 1.017-0.964 1.884-1.69 2.599l-0.001 0.001c-0.734 0.747-1.621 1.323-2.598 1.691-0.934 0.363-2.001 0.611-3.561 0.683-1.566 0.072-2.065 0.088-6.050 0.088s-4.484-0.017-6.049-0.088c-1.561-0.071-2.628-0.32-3.561-0.683-1.017-0.389-1.884-0.964-2.599-1.69l-0.001-0.001c-0.728-0.715-1.303-1.581-1.676-2.549l-0.017-0.049c-0.361-0.934-0.61-2.001-0.682-3.561-0.072-1.567-0.088-2.066-0.088-6.050 0-3.985 0.017-4.484 0.088-6.047s0.32-2.63 0.682-3.564c0.39-1.017 0.966-1.884 1.693-2.597l0.001-0.001c0.714-0.728 1.581-1.303 2.548-1.676l0.049-0.017c0.934-0.361 2.001-0.61 3.561-0.682h0.001zM21.934 4.063c-1.547-0.071-2.011-0.085-5.929-0.085s-4.382 0.015-5.929 0.085c-1.431 0.065-2.207 0.304-2.725 0.505-0.684 0.267-1.174 0.583-1.687 1.096-0.475 0.462-0.848 1.026-1.086 1.656l-0.010 0.031c-0.201 0.518-0.44 1.294-0.505 2.725-0.071 1.547-0.085 2.011-0.085 5.929s0.015 4.382 0.085 5.929c0.065 1.431 0.304 2.207 0.505 2.725 0.235 0.636 0.61 1.214 1.096 1.687 0.473 0.487 1.051 0.862 1.687 1.096 0.518 0.201 1.294 0.44 2.725 0.506 1.547 0.071 2.010 0.085 5.929 0.085s4.382-0.015 5.929-0.085c1.431-0.065 2.207-0.304 2.725-0.506 0.684-0.267 1.174-0.583 1.687-1.096 0.487-0.474 0.862-1.051 1.096-1.687 0.201-0.518 0.44-1.294 0.506-2.725 0.071-1.547 0.085-2.011 0.085-5.929s-0.015-4.382-0.085-5.929c-0.065-1.431-0.304-2.207-0.506-2.725-0.267-0.684-0.583-1.174-1.096-1.687-0.462-0.475-1.026-0.848-1.656-1.086l-0.031-0.010c-0.518-0.201-1.294-0.44-2.725-0.505zM14.132 20.529c0.554 0.236 1.198 0.373 1.874 0.373 2.703 0 4.895-2.192 4.895-4.895 0-2.112-1.338-3.912-3.213-4.598l-0.034-0.011c-0.491-0.181-1.057-0.286-1.648-0.286-2.703 0-4.895 2.192-4.895 4.895 0 2.027 1.232 3.767 2.989 4.51l0.032 0.012zM10.673 10.673c1.365-1.365 3.25-2.209 5.333-2.209 4.165 0 7.541 3.376 7.541 7.541 0 2.082-0.844 3.968-2.209 5.333v0c-1.365 1.365-3.25 2.209-5.333 2.209-4.165 0-7.541-3.376-7.541-7.541 0-2.082 0.844-3.968 2.209-5.333v0zM25.22 9.587c0.345-0.326 0.559-0.786 0.559-1.296 0-0.984-0.798-1.782-1.782-1.782-0.474 0-0.905 0.185-1.224 0.487l0.001-0.001c-0.345 0.326-0.559 0.786-0.559 1.296 0 0.984 0.798 1.782 1.782 1.782 0.474 0 0.905-0.185 1.224-0.487l-0.001 0.001z"></path>
</symbol>
<symbol id="icon-location" viewBox="0 0 32 32">
<path d="M16.006 3.214c-0.004 0-0.009 0-0.013 0-4.412 0-7.989 3.577-7.989 7.989v0c0 7.641 8.003 17.606 8.003 17.606s8.003-9.968 8.003-17.606c-0.002-4.411-3.578-7.987-7.989-7.987-0.005 0-0.009 0-0.014 0h0.001zM16.006 15.622c-2.387 0-4.322-1.935-4.322-4.322s1.935-4.322 4.322-4.322v0c2.387 0 4.322 1.935 4.322 4.322s-1.935 4.322-4.322 4.322v0z"></path>
</symbol>
<symbol id="icon-phone" viewBox="0 0 32 32">
<path d="M21.007 2.668c1.657 0 3.001 1.344 3.001 3.001v0 20.674c0 1.657-1.344 3.001-3.001 3.001v0h-10.004c-1.657 0-3.001-1.344-3.001-3.001v0-20.674c0-1.657 1.344-3.001 3.001-3.001v0h10.004zM21.007 4.668h-10.004c-0.552 0-1 0.448-1 1v0 20.674c0 0.552 0.448 1 1 1h10.004c0.552 0 1-0.448 1-1v0-20.674c0-0.552-0.448-1-1-1v0zM17.672 23.342c0 0 0.001 0 0.001 0 0.552 0 1 0.448 1 1s-0.447 1-0.999 1l-3.335 0.005c-0 0-0.001 0-0.001 0-0.552 0-1-0.448-1-1s0.447-1 0.999-1l3.335-0.005z"></path>
</symbol>
<symbol id="icon-telegram" viewBox="0 0 32 32">
<path d="M26.079 3.997c-0.343 0.025-0.66 0.105-0.953 0.23l0.019-0.007h-0.003c-0.285 0.113-1.641 0.683-3.701 1.547l-7.385 3.11c-5.299 2.233-10.508 4.428-10.508 4.428l0.063-0.024s-0.36 0.117-0.734 0.373c-0.233 0.149-0.432 0.341-0.587 0.568-0.18 0.262-0.287 0.585-0.287 0.934 0 0.063 0.003 0.124 0.010 0.185l-0.001-0.008c0.091 0.722 0.559 1.155 0.894 1.394 0.341 0.243 0.666 0.355 0.666 0.355h0.008l4.884 1.646c0.219 0.703 1.489 4.876 1.794 5.838 0.18 0.574 0.355 0.934 0.574 1.207 0.107 0.14 0.229 0.257 0.379 0.352 0.077 0.045 0.16 0.080 0.247 0.107l-0.051-0.013c0.015 0.004 0.027 0.016 0.039 0.020 0.040 0.011 0.067 0.015 0.117 0.023 0.774 0.235 1.395-0.245 1.395-0.245l0.035-0.028 2.884-2.626 4.834 3.708 0.111 0.048c1.007 0.442 2.027 0.196 2.566-0.239 0.544-0.438 0.755-0.996 0.755-0.996l0.035-0.089 3.735-19.136c0.107-0.472 0.133-0.915 0.017-1.343-0.121-0.435-0.4-0.808-0.782-1.048-0.277-0.171-0.613-0.272-0.972-0.272-0.034 0-0.067 0.001-0.1 0.003l0.005-0zM25.979 6.047c-0.004 0.064 0.008 0.056-0.020 0.177v0.011l-3.7 18.937c-0.016 0.027-0.044 0.085-0.117 0.145-0.079 0.061-0.14 0.1-0.465-0.028l-5.913-4.534-3.571 3.255 0.751-4.791 9.658-9.003c0.399-0.369 0.267-0.448 0.267-0.448 0.027-0.454-0.602-0.133-0.602-0.133l-12.183 7.548-0.003-0.020-5.853-1.973c0.012-0.004 0.021-0.009 0.031-0.014l-0.001 0.001 0.032-0.015 0.031-0.011 10.512-4.428c2.653-1.118 5.326-2.242 7.381-3.11 1.219-0.514 2.441-1.024 3.661-1.531 0.083-0.032 0.044-0.032 0.103-0.032z"></path>
</symbol>
<symbol id="icon-arrow-down" viewBox="0 0 33 32">
<path fill="#c79002" style="fill: var(--color1, #c79002)" d="M5.279 9.409c0.333-0.333 0.785-0.521 1.257-0.521s0.923 0.187 1.257 0.521l8.8 8.8 8.8-8.8c0.335-0.324 0.784-0.503 1.25-0.499s0.912 0.191 1.242 0.521c0.33 0.33 0.517 0.775 0.521 1.242s-0.175 0.915-0.499 1.251l-10.057 10.057c-0.333 0.333-0.786 0.521-1.257 0.521s-0.924-0.187-1.257-0.521l-10.057-10.057c-0.333-0.333-0.521-0.786-0.521-1.257s0.187-0.924 0.521-1.257z"></path>
<symbol id="icon-cil_arrow-right" viewBox="0 0 32 32">
<path d="M22.492 7.586l-1.414 1.414 6 6h-26.078v2h26.077l-6 6 1.414 1.414 8.414-8.414-8.414-8.414z"></path>
</symbol>
</defs>
</svg>
